<?xml version="1.0" encoding="UTF-8"?>
<svg id="_x31_a" xmlns="http://www.w3.org/2000/svg" version="1.1" viewBox="0 0 50 50">
  <!-- Generator: Adobe Illustrator 29.6.1, SVG Export Plug-In . SVG Version: 2.1.1 Build 9)  -->
  <defs>
    <style>
      .st0 {
        fill: #f2cb89;
      }
    </style>
  </defs>
  <path class="st0" d="M25,0C11.19,0,0,11.19,0,25c0,6.91,2.8,13.15,7.32,17.68,4.53,4.52,10.77,7.32,17.68,7.32s13.15-2.8,17.68-7.32c4.52-4.53,7.32-10.77,7.32-17.68C50,11.19,38.81,0,25,0ZM27.5,5.16c9.05,1.12,16.23,8.3,17.35,17.34h-17.35s0-17.34,0-17.34ZM22.5,5.16v17.34H5.16C6.28,13.46,13.46,6.28,22.5,5.16ZM10.86,39.14c-3.07-3.07-5.14-7.11-5.7-11.64h17.34l-11.64,11.64ZM39.15,39.15l-11.65-11.65h17.35c-.56,4.53-2.64,8.58-5.7,11.65Z"/>
</svg>