<?xml version="1.0" encoding="UTF-8"?>
<svg id="_x31_b" xmlns="http://www.w3.org/2000/svg" version="1.1" viewBox="0 0 50 50">
  <!-- Generator: Adobe Illustrator 29.6.1, SVG Export Plug-In . SVG Version: 2.1.1 Build 9)  -->
  <defs>
    <style>
      .st0 {
        fill: none;
      }
    </style>
  </defs>
  <path d="M25,0C11.19,0,0,11.19,0,25s11.19,25,25,25,25-11.19,25-25S38.81,0,25,0ZM22.5,44.85c-9.04-1.12-16.22-8.3-17.34-17.35h17.34v17.35ZM22.5,22.5H5.16c.44-3.58,1.83-6.86,3.92-9.59.07-.11.14-.2.22-.29.68-.84,1.73-1.37,2.89-1.37,1.74,0,3.19,1.17,3.61,2.77.09.31.14.64.14.98,0,.44-.08.86-.22,1.25-.36,1.03-1.15,1.85-2.16,2.23.34.17.72.27,1.12.27,1.38,0,2.5-1.12,2.5-2.5h2.99c.33,1.31,1.18,2.41,2.33,3.07v3.18ZM27.5,19.32c1.15-.66,2-1.76,2.34-3.07h2.98c0,1.38,1.12,2.5,2.5,2.5.4,0,.78-.1,1.12-.27-1-.39-1.79-1.21-2.15-2.23-.14-.39-.22-.81-.22-1.25,0-.34.05-.68.14-.99.43-1.59,1.88-2.76,3.61-2.76,1.13,0,2.14.5,2.82,1.29.11.12.22.25.31.4,2.07,2.72,3.46,6,3.9,9.56h-17.35v-3.18ZM27.5,44.85v-17.35h17.35c-1.12,9.05-8.3,16.23-17.35,17.35Z"/>
  <path class="st0" d="M33.67,27.445v3.18h-17.34c.44-3.58,1.83-6.86,3.92-9.59.07-.11.14-.2.22-.29.68-.84,1.73-1.37,2.89-1.37,1.74,0,3.19,1.17,3.61,2.77.09.31.14.64.14.98,0,.44-.08.86-.22,1.25-.36,1.03-1.15,1.85-2.16,2.23.34.17.72.27,1.12.27,1.38,0,2.5-1.12,2.5-2.5h2.99c.33,1.31,1.18,2.41,2.33,3.07Z"/>
  <path class="st0" d="M33.675,30.625h-17.35v-3.18c1.15-.66,2-1.76,2.34-3.07h2.98c0,1.38,1.12,2.5,2.5,2.5.4,0,.78-.1,1.12-.27-1-.39-1.79-1.21-2.15-2.23-.14-.39-.22-.81-.22-1.25,0-.34.05-.68.14-.99.43-1.59,1.88-2.76,3.61-2.76,1.13,0,2.14.5,2.82,1.29.11.12.22.25.31.4,2.07,2.72,3.46,6,3.9,9.56Z"/>
</svg>