<?xml version="1.0" encoding="UTF-8"?>
<svg id="_x32_b" xmlns="http://www.w3.org/2000/svg" version="1.1" viewBox="0 0 50 50">
  <!-- Generator: Adobe Illustrator 29.6.1, SVG Export Plug-In . SVG Version: 2.1.1 Build 9)  -->
  <path d="M25,0C11.19,0,0,11.19,0,25h18.77c.23,3.24,2.93,5.8,6.23,5.8s6-2.56,6.23-5.8h18.77C50,11.19,38.81,0,25,0ZM23.13,21.25H4.08c.06-.36.14-.71.22-1.06.05-.24.11-.48.18-.72.21-.8.48-1.58.78-2.34.1-.26.21-.52.33-.78.11-.26.23-.51.36-.76.12-.26.25-.51.39-.75.13-.25.26-.49.42-.73.13-.24.28-.48.44-.71.3-.47.62-.92.97-1.36.7-.92,1.48-1.78,2.33-2.57.04-.04.08-.08.12-.11.1-.1.2-.19.31-.28.91-.76,2.09-1.21,3.37-1.21,2.29,0,4.23,1.44,4.98,3.46.03.09.06.18.1.27.41.94,1.35,1.59,2.44,1.59h1.31v8.06ZM26.88,21.25v-8.07h1.3c1.1,0,2.05-.67,2.45-1.62.69-2.14,2.7-3.69,5.07-3.69,1.28,0,2.46.45,3.37,1.21.11.09.22.18.31.28.03.02.05.04.07.07.87.8,1.67,1.67,2.38,2.61.35.44.67.89.97,1.36.16.23.31.47.44.71.16.24.29.48.42.73.14.24.27.49.39.75.13.25.25.5.36.76.12.26.23.52.33.78.3.76.57,1.54.78,2.34.07.24.13.48.18.72.08.35.16.7.22,1.06h-19.04Z"/>
</svg>