<?xml version="1.0" encoding="UTF-8"?>
<svg id="n_x2F_a_or_unknown" xmlns="http://www.w3.org/2000/svg" version="1.1" viewBox="0 0 50 50">
  <!-- Generator: Adobe Illustrator 29.6.1, SVG Export Plug-In . SVG Version: 2.1.1 Build 9)  -->
  <defs>
    <style>
      .st0 {
        fill: #f2cb89;
      }
    </style>
  </defs>
  <path class="st0" d="M25,0C11.19,0,0,11.19,0,25s11.19,25,25,25,25-11.19,25-25S38.81,0,25,0ZM25,48.75c-13.12,0-23.75-10.63-23.75-23.75S11.88,1.25,25,1.25s23.75,10.63,23.75,23.75-10.63,23.75-23.75,23.75Z"/>
  <path class="st0" d="M21.16,19.552c-.288,0-.648-.312-.648-.673,0-.239.24-.504.456-.72.984-.912,2.352-1.608,3.84-1.608,2.808,0,4.68,1.872,4.68,4.44,0,1.896-1.128,3.265-2.664,4.152-1.104.648-1.128,1.584-1.128,2.545,0,.432-.36.575-.648.575-.336,0-.648-.168-.648-.575,0-1.345.096-2.568,1.632-3.505,1.2-.744,2.112-1.632,2.112-3.216,0-1.729-1.08-3.145-3.336-3.145-1.296,0-2.304.72-3.192,1.561-.096.096-.288.168-.456.168h0ZM25.024,31.481c.552,0,.984.432.984.984s-.432.983-.984.983-.984-.432-.984-.983.432-.984.984-.984Z"/>
</svg>